<mxfile host="app.diagrams.net" agent="Mozilla/5.0 (Windows NT 10.0; Win64; x64) AppleWebKit/537.36 (KHTML, like Gecko) Chrome/136.0.0.0 Safari/537.36" version="26.2.13">
  <diagram name="Page-1" id="s_fFdYBeo-aB8hjEnPL_">
    <mxGraphModel dx="2467" dy="931" grid="0" gridSize="10" guides="1" tooltips="1" connect="1" arrows="1" fold="1" page="0" pageScale="1" pageWidth="850" pageHeight="1100" background="light-dark(#f9f5e6, #281d00)" math="0" shadow="0" adaptiveColors="simple">
      <root>
        <mxCell id="0" />
        <mxCell id="1" parent="0" />
        <mxCell id="pwRpZumDW34BC_uTCRvS-6" value="&lt;b&gt;Fetch Documents&lt;/b&gt;&lt;div&gt;Python + BS4 + Docling&lt;/div&gt;" style="shape=process;whiteSpace=wrap;html=1;backgroundOutline=1;size=0;rounded=1;labelBackgroundColor=none;" parent="1" vertex="1">
          <mxGeometry x="-615.05" y="206" width="127" height="60" as="geometry" />
        </mxCell>
        <mxCell id="PfY1JgYnK7wdRjLJrnEG-42" style="edgeStyle=orthogonalEdgeStyle;rounded=1;orthogonalLoop=1;jettySize=auto;html=1;exitX=0.5;exitY=1;exitDx=0;exitDy=0;entryX=0.422;entryY=0.003;entryDx=0;entryDy=0;entryPerimeter=0;flowAnimation=1;labelBackgroundColor=none;fontColor=default;" parent="1" source="pwRpZumDW34BC_uTCRvS-6" target="PfY1JgYnK7wdRjLJrnEG-4" edge="1">
          <mxGeometry relative="1" as="geometry" />
        </mxCell>
        <mxCell id="thdCBMt3zru_icMi-Z0L-13" value="" style="group;rounded=1;labelBackgroundColor=none;" parent="1" vertex="1" connectable="0">
          <mxGeometry x="-761" y="118" width="1675" height="916" as="geometry" />
        </mxCell>
        <mxCell id="PfY1JgYnK7wdRjLJrnEG-15" value="" style="rounded=1;whiteSpace=wrap;html=1;flipV=1;flipH=0;opacity=30;labelBackgroundColor=none;" parent="thdCBMt3zru_icMi-Z0L-13" vertex="1">
          <mxGeometry x="574.285714285714" y="245.12676056338023" width="406.7857142857142" height="606.3661971830985" as="geometry" />
        </mxCell>
        <mxCell id="pwRpZumDW34BC_uTCRvS-2" value="Lexical + Semantic + Fuzzy Search Service" style="shape=process;whiteSpace=wrap;html=1;backgroundOutline=1;rounded=1;labelBackgroundColor=none;" parent="thdCBMt3zru_icMi-Z0L-13" vertex="1">
          <mxGeometry x="1172.4999999999995" y="219.3239436619718" width="167.49999999999997" height="77.40845070422536" as="geometry" />
        </mxCell>
        <mxCell id="pwRpZumDW34BC_uTCRvS-15" value="&lt;b&gt;Text Pre-processing&lt;/b&gt;" style="shape=process;whiteSpace=wrap;html=1;backgroundOutline=1;flipH=1;flipV=1;rounded=1;labelBackgroundColor=none;" parent="thdCBMt3zru_icMi-Z0L-13" vertex="1">
          <mxGeometry x="729.8214285714284" y="283.830985915493" width="155.53571428571425" height="77.40845070422536" as="geometry" />
        </mxCell>
        <mxCell id="pwRpZumDW34BC_uTCRvS-16" value="&lt;b&gt;Identify Key Topics&lt;/b&gt;" style="shape=process;whiteSpace=wrap;html=1;backgroundOutline=1;flipH=1;flipV=1;rounded=1;labelBackgroundColor=none;" parent="thdCBMt3zru_icMi-Z0L-13" vertex="1">
          <mxGeometry x="729.8214285714284" y="399.9436619718309" width="155.53571428571425" height="77.40845070422536" as="geometry" />
        </mxCell>
        <mxCell id="pwRpZumDW34BC_uTCRvS-17" value="&lt;b&gt;Identify Key Entities&lt;/b&gt;" style="shape=process;whiteSpace=wrap;html=1;backgroundOutline=1;flipH=1;flipV=1;rounded=1;labelBackgroundColor=none;" parent="thdCBMt3zru_icMi-Z0L-13" vertex="1">
          <mxGeometry x="729.8214285714284" y="516.056338028169" width="155.53571428571425" height="77.40845070422536" as="geometry" />
        </mxCell>
        <mxCell id="pwRpZumDW34BC_uTCRvS-18" value="&lt;b&gt;Generate and Store Embeddings&lt;/b&gt;" style="shape=process;whiteSpace=wrap;html=1;backgroundOutline=1;rounded=1;labelBackgroundColor=none;" parent="thdCBMt3zru_icMi-Z0L-13" vertex="1">
          <mxGeometry x="729.8214285714284" y="748.2816901408451" width="155.53571428571425" height="77.40845070422536" as="geometry" />
        </mxCell>
        <mxCell id="PfY1JgYnK7wdRjLJrnEG-4" value="" style="points=[];html=1;align=center;shadow=0;dashed=0;shape=mxgraph.alibaba_cloud.opensearch;rounded=1;labelBackgroundColor=none;" parent="thdCBMt3zru_icMi-Z0L-13" vertex="1">
          <mxGeometry x="35.89285714285713" y="309.62905747126433" width="62.152133580705" height="63.172413793103445" as="geometry" />
        </mxCell>
        <mxCell id="PfY1JgYnK7wdRjLJrnEG-6" value="Press Release URL Metadata&amp;nbsp;&lt;div&gt;Index on AWS OpenSearch&lt;/div&gt;" style="text;html=1;align=center;verticalAlign=middle;resizable=0;points=[];autosize=1;rounded=1;labelBackgroundColor=none;" parent="thdCBMt3zru_icMi-Z0L-13" vertex="1">
          <mxGeometry x="107.6785714285714" y="322.53521126760563" width="180" height="40" as="geometry" />
        </mxCell>
        <mxCell id="PfY1JgYnK7wdRjLJrnEG-7" value="&lt;b&gt;Fetch PR contents&lt;/b&gt;&lt;div&gt;Python + BS4&lt;/div&gt;" style="shape=process;whiteSpace=wrap;html=1;backgroundOutline=1;size=0;glass=0;rounded=1;shadow=0;labelBackgroundColor=none;" parent="thdCBMt3zru_icMi-Z0L-13" vertex="1">
          <mxGeometry y="516.056338028169" width="155.53571428571425" height="77.40845070422536" as="geometry" />
        </mxCell>
        <mxCell id="thdCBMt3zru_icMi-Z0L-42" style="edgeStyle=orthogonalEdgeStyle;rounded=1;orthogonalLoop=1;jettySize=auto;html=1;flowAnimation=1;labelBackgroundColor=none;fontColor=default;" parent="thdCBMt3zru_icMi-Z0L-13" source="PfY1JgYnK7wdRjLJrnEG-11" edge="1">
          <mxGeometry relative="1" as="geometry">
            <mxPoint x="572.4902082044938" y="546.0662427900737" as="targetPoint" />
          </mxGeometry>
        </mxCell>
        <mxCell id="PfY1JgYnK7wdRjLJrnEG-11" value="" style="points=[];aspect=fixed;html=1;align=center;shadow=0;dashed=0;shape=mxgraph.alibaba_cloud.opensearch;rounded=1;labelBackgroundColor=none;" parent="thdCBMt3zru_icMi-Z0L-13" vertex="1">
          <mxGeometry x="283.8280766852195" y="513.8031886028816" width="61.28571428571428" height="61.28571428571428" as="geometry" />
        </mxCell>
        <mxCell id="PfY1JgYnK7wdRjLJrnEG-12" value="Press Release Raw Content Metadata&amp;nbsp;&lt;div&gt;Index on AWS OpenSearch&lt;/div&gt;" style="text;html=1;align=center;verticalAlign=middle;resizable=0;points=[];autosize=1;rounded=1;labelBackgroundColor=none;" parent="thdCBMt3zru_icMi-Z0L-13" vertex="1">
          <mxGeometry x="213.99857142857135" y="588.9961971830985" width="230" height="40" as="geometry" />
        </mxCell>
        <mxCell id="PfY1JgYnK7wdRjLJrnEG-14" value="&lt;b&gt;Generate 2 Line Summary&lt;/b&gt;" style="shape=process;whiteSpace=wrap;html=1;backgroundOutline=1;flipH=1;flipV=1;rounded=1;labelBackgroundColor=none;" parent="thdCBMt3zru_icMi-Z0L-13" vertex="1">
          <mxGeometry x="729.8214285714284" y="632.169014084507" width="155.53571428571425" height="77.40845070422536" as="geometry" />
        </mxCell>
        <mxCell id="PfY1JgYnK7wdRjLJrnEG-20" value="" style="points=[[0,0,0],[0.25,0,0],[0.5,0,0],[0.75,0,0],[1,0,0],[0,1,0],[0.25,1,0],[0.5,1,0],[0.75,1,0],[1,1,0],[0,0.25,0],[0,0.5,0],[0,0.75,0],[1,0.25,0],[1,0.5,0],[1,0.75,0]];outlineConnect=0;dashed=0;verticalLabelPosition=bottom;verticalAlign=top;align=center;html=1;fontSize=12;fontStyle=0;aspect=fixed;shape=mxgraph.aws4.resourceIcon;resIcon=mxgraph.aws4.bedrock;rounded=1;labelBackgroundColor=none;" parent="thdCBMt3zru_icMi-Z0L-13" vertex="1">
          <mxGeometry x="598.2142857142854" y="438.6478873239436" width="51.07142857142857" height="51.07142857142857" as="geometry" />
        </mxCell>
        <mxCell id="PfY1JgYnK7wdRjLJrnEG-22" value="" style="shape=image;verticalLabelPosition=bottom;labelBackgroundColor=none;verticalAlign=top;aspect=fixed;imageAspect=0;image=https://pbs.twimg.com/profile_images/1650250832909152260/760DZ0cv_400x400.png;rounded=1;" parent="thdCBMt3zru_icMi-Z0L-13" vertex="1">
          <mxGeometry x="598.2142857142854" y="528.9577464788732" width="51.07142857142857" height="51.07142857142857" as="geometry" />
        </mxCell>
        <mxCell id="PfY1JgYnK7wdRjLJrnEG-31" value="Chat Interface&lt;br&gt;Streamlit UI" style="shape=process;whiteSpace=wrap;html=1;backgroundOutline=1;rounded=1;labelBackgroundColor=none;" parent="thdCBMt3zru_icMi-Z0L-13" vertex="1">
          <mxGeometry x="1172.4999999999995" width="167.49999999999997" height="77.40845070422536" as="geometry" />
        </mxCell>
        <mxCell id="PfY1JgYnK7wdRjLJrnEG-38" value="&lt;b&gt;Python + AWS SDK &lt;/b&gt;using Cohere Command R1 and&amp;nbsp;&lt;div&gt;Titan Text Embeddings&amp;nbsp;&lt;span style=&quot;background-color: transparent; color: light-dark(rgb(0, 0, 0), rgb(255, 255, 255));&quot;&gt;via Bedrock&lt;/span&gt;&lt;/div&gt;" style="text;html=1;align=center;verticalAlign=middle;resizable=0;points=[];autosize=1;rounded=1;labelBackgroundColor=none;" parent="thdCBMt3zru_icMi-Z0L-13" vertex="1">
          <mxGeometry x="598.2142857142854" y="864.394366197183" width="310" height="40" as="geometry" />
        </mxCell>
        <mxCell id="PfY1JgYnK7wdRjLJrnEG-39" value="&lt;b&gt;Vector&amp;nbsp;&lt;/b&gt;&lt;span style=&quot;background-color: transparent; color: light-dark(rgb(0, 0, 0), rgb(255, 255, 255));&quot;&gt;&lt;b&gt;Index&lt;/b&gt; on AWS OpenSearch&lt;/span&gt;" style="text;html=1;align=center;verticalAlign=middle;resizable=0;points=[];autosize=1;rounded=1;labelBackgroundColor=none;" parent="thdCBMt3zru_icMi-Z0L-13" vertex="1">
          <mxGeometry x="1151.2540445269012" y="606.369971830986" width="210" height="30" as="geometry" />
        </mxCell>
        <mxCell id="PfY1JgYnK7wdRjLJrnEG-49" value="" style="outlineConnect=0;dashed=0;verticalLabelPosition=bottom;verticalAlign=top;align=center;html=1;shape=mxgraph.aws3.s3;rounded=1;labelBackgroundColor=none;" parent="thdCBMt3zru_icMi-Z0L-13" vertex="1">
          <mxGeometry x="406.41886827458245" y="79.30074340294642" width="71.78571428571425" height="77.40845070422536" as="geometry" />
        </mxCell>
        <mxCell id="PfY1JgYnK7wdRjLJrnEG-52" value="S3 based data lake to store files&lt;div&gt;and other types of documents&lt;/div&gt;" style="text;html=1;align=center;verticalAlign=middle;resizable=0;points=[];autosize=1;rounded=1;labelBackgroundColor=none;" parent="thdCBMt3zru_icMi-Z0L-13" vertex="1">
          <mxGeometry x="499.99648113790965" y="98.00635097943987" width="190" height="40" as="geometry" />
        </mxCell>
        <mxCell id="thdCBMt3zru_icMi-Z0L-1" value="" style="points=[];html=1;align=center;shadow=0;dashed=0;shape=mxgraph.alibaba_cloud.opensearch;rounded=1;labelBackgroundColor=none;" parent="thdCBMt3zru_icMi-Z0L-13" vertex="1">
          <mxGeometry x="1220.3571428571427" y="516.0557448599643" width="71.78571428571425" height="77.40845070422536" as="geometry" />
        </mxCell>
        <mxCell id="thdCBMt3zru_icMi-Z0L-5" value="Topic Modeling" style="shape=process;whiteSpace=wrap;html=1;backgroundOutline=1;rounded=1;labelBackgroundColor=none;" parent="thdCBMt3zru_icMi-Z0L-13" vertex="1">
          <mxGeometry x="1515.4761904761901" y="509.60904451999346" width="167.49999999999997" height="77.40845070422536" as="geometry" />
        </mxCell>
        <mxCell id="PfY1JgYnK7wdRjLJrnEG-37" style="edgeStyle=orthogonalEdgeStyle;rounded=1;orthogonalLoop=1;jettySize=auto;html=1;exitX=0.75;exitY=0;exitDx=0;exitDy=0;entryX=0.75;entryY=1;entryDx=0;entryDy=0;flowAnimation=1;labelBackgroundColor=none;fontColor=default;" parent="thdCBMt3zru_icMi-Z0L-13" source="pwRpZumDW34BC_uTCRvS-2" target="PfY1JgYnK7wdRjLJrnEG-31" edge="1">
          <mxGeometry relative="1" as="geometry" />
        </mxCell>
        <mxCell id="PfY1JgYnK7wdRjLJrnEG-36" style="edgeStyle=orthogonalEdgeStyle;rounded=1;orthogonalLoop=1;jettySize=auto;html=1;exitX=0.25;exitY=1;exitDx=0;exitDy=0;entryX=0.25;entryY=0;entryDx=0;entryDy=0;flowAnimation=1;labelBackgroundColor=none;fontColor=default;" parent="thdCBMt3zru_icMi-Z0L-13" source="PfY1JgYnK7wdRjLJrnEG-31" target="pwRpZumDW34BC_uTCRvS-2" edge="1">
          <mxGeometry relative="1" as="geometry" />
        </mxCell>
        <mxCell id="PfY1JgYnK7wdRjLJrnEG-51" style="edgeStyle=orthogonalEdgeStyle;rounded=1;orthogonalLoop=1;jettySize=auto;html=1;exitX=0.5;exitY=1;exitDx=0;exitDy=0;exitPerimeter=0;entryX=0;entryY=0.25;entryDx=0;entryDy=0;flowAnimation=1;labelBackgroundColor=none;fontColor=default;" parent="thdCBMt3zru_icMi-Z0L-13" source="PfY1JgYnK7wdRjLJrnEG-49" target="PfY1JgYnK7wdRjLJrnEG-15" edge="1">
          <mxGeometry relative="1" as="geometry" />
        </mxCell>
        <mxCell id="thdCBMt3zru_icMi-Z0L-6" style="edgeStyle=orthogonalEdgeStyle;rounded=1;orthogonalLoop=1;jettySize=auto;html=1;exitX=1;exitY=0.5;exitDx=0;exitDy=0;entryX=0.052;entryY=0.417;entryDx=0;entryDy=0;entryPerimeter=0;flowAnimation=1;labelBackgroundColor=none;fontColor=default;" parent="thdCBMt3zru_icMi-Z0L-13" source="PfY1JgYnK7wdRjLJrnEG-15" target="thdCBMt3zru_icMi-Z0L-1" edge="1">
          <mxGeometry relative="1" as="geometry" />
        </mxCell>
        <mxCell id="thdCBMt3zru_icMi-Z0L-9" style="edgeStyle=orthogonalEdgeStyle;rounded=1;orthogonalLoop=1;jettySize=auto;html=1;entryX=0.5;entryY=1;entryDx=0;entryDy=0;flowAnimation=1;labelBackgroundColor=none;fontColor=default;" parent="thdCBMt3zru_icMi-Z0L-13" source="thdCBMt3zru_icMi-Z0L-1" target="pwRpZumDW34BC_uTCRvS-2" edge="1">
          <mxGeometry relative="1" as="geometry" />
        </mxCell>
        <mxCell id="thdCBMt3zru_icMi-Z0L-4" value="Human in the Loop&lt;br&gt;Streamlit UI" style="shape=process;whiteSpace=wrap;html=1;backgroundOutline=1;rounded=1;labelBackgroundColor=none;" parent="thdCBMt3zru_icMi-Z0L-13" vertex="1">
          <mxGeometry x="1518.2212430426714" y="0.5474942528735632" width="146.05751391465674" height="76.85977011494252" as="geometry" />
        </mxCell>
        <mxCell id="thdCBMt3zru_icMi-Z0L-17" style="edgeStyle=orthogonalEdgeStyle;rounded=1;orthogonalLoop=1;jettySize=auto;html=1;exitX=0.5;exitY=0;exitDx=0;exitDy=0;entryX=0.5;entryY=1;entryDx=0;entryDy=0;flowAnimation=1;labelBackgroundColor=none;fontColor=default;" parent="thdCBMt3zru_icMi-Z0L-13" source="thdCBMt3zru_icMi-Z0L-3" target="thdCBMt3zru_icMi-Z0L-4" edge="1">
          <mxGeometry relative="1" as="geometry" />
        </mxCell>
        <mxCell id="thdCBMt3zru_icMi-Z0L-11" style="edgeStyle=orthogonalEdgeStyle;rounded=1;orthogonalLoop=1;jettySize=auto;html=1;entryX=0;entryY=0.5;entryDx=0;entryDy=0;flowAnimation=1;labelBackgroundColor=none;fontColor=default;" parent="thdCBMt3zru_icMi-Z0L-13" edge="1">
          <mxGeometry relative="1" as="geometry">
            <mxPoint x="1582.807668521954" y="495.90344827586205" as="sourcePoint" />
            <mxPoint x="1582.807668521954" y="291.5722758620687" as="targetPoint" />
            <Array as="points">
              <mxPoint x="1582.807668521954" y="505.37931034482756" />
            </Array>
          </mxGeometry>
        </mxCell>
        <mxCell id="thdCBMt3zru_icMi-Z0L-3" value="" style="shape=image;verticalLabelPosition=bottom;labelBackgroundColor=none;verticalAlign=top;imageAspect=0;image=https://static-00.iconduck.com/assets.00/neo4j-icon-1808x2048-22lbowan.png;rounded=1;" parent="thdCBMt3zru_icMi-Z0L-13" vertex="1">
          <mxGeometry x="1560.1739332096472" y="224.48317241379308" width="62.152133580705" height="67.08910344827586" as="geometry" />
        </mxCell>
        <mxCell id="thdCBMt3zru_icMi-Z0L-25" style="edgeStyle=orthogonalEdgeStyle;rounded=1;orthogonalLoop=1;jettySize=auto;html=1;entryX=0.439;entryY=0.012;entryDx=0;entryDy=0;entryPerimeter=0;flowAnimation=1;labelBackgroundColor=none;fontColor=default;" parent="thdCBMt3zru_icMi-Z0L-13" source="PfY1JgYnK7wdRjLJrnEG-4" target="PfY1JgYnK7wdRjLJrnEG-7" edge="1">
          <mxGeometry relative="1" as="geometry" />
        </mxCell>
        <mxCell id="thdCBMt3zru_icMi-Z0L-26" style="edgeStyle=orthogonalEdgeStyle;rounded=1;orthogonalLoop=1;jettySize=auto;html=1;exitX=1;exitY=0.5;exitDx=0;exitDy=0;entryX=0.073;entryY=0.62;entryDx=0;entryDy=0;entryPerimeter=0;flowAnimation=1;labelBackgroundColor=none;fontColor=default;" parent="thdCBMt3zru_icMi-Z0L-13" source="PfY1JgYnK7wdRjLJrnEG-7" target="PfY1JgYnK7wdRjLJrnEG-11" edge="1">
          <mxGeometry relative="1" as="geometry" />
        </mxCell>
        <mxCell id="thdCBMt3zru_icMi-Z0L-44" style="edgeStyle=orthogonalEdgeStyle;rounded=1;orthogonalLoop=1;jettySize=auto;html=1;entryX=0;entryY=0.595;entryDx=0;entryDy=0;entryPerimeter=0;flowAnimation=1;labelBackgroundColor=none;fontColor=default;" parent="thdCBMt3zru_icMi-Z0L-13" source="thdCBMt3zru_icMi-Z0L-1" target="thdCBMt3zru_icMi-Z0L-5" edge="1">
          <mxGeometry relative="1" as="geometry" />
        </mxCell>
        <mxCell id="thdCBMt3zru_icMi-Z0L-23" style="edgeStyle=orthogonalEdgeStyle;rounded=1;orthogonalLoop=1;jettySize=auto;html=1;exitX=1;exitY=0.5;exitDx=0;exitDy=0;entryX=0;entryY=0.5;entryDx=0;entryDy=0;entryPerimeter=0;flowAnimation=1;labelBackgroundColor=none;fontColor=default;" parent="1" source="pwRpZumDW34BC_uTCRvS-6" target="PfY1JgYnK7wdRjLJrnEG-49" edge="1">
          <mxGeometry relative="1" as="geometry" />
        </mxCell>
      </root>
    </mxGraphModel>
  </diagram>
</mxfile>
